<?xml version="1.0" encoding="utf-8"?>
<!-- Generator: Adobe Illustrator 24.2.1, SVG Export Plug-In . SVG Version: 6.00 Build 0)  -->
<svg version="1.1" id="Capa_1" xmlns="http://www.w3.org/2000/svg" xmlns:xlink="http://www.w3.org/1999/xlink" x="0px" y="0px"
	 viewBox="0 0 49.9 49.9" style="enable-background:new 0 0 49.9 49.9;" xml:space="preserve">
<path d="M18.3,27.3H3.8c-1.3,0-2.4-1.1-2.4-2.4C1.5,12,12,1.5,25,1.5c9.7,0,18.3,5.9,21.8,14.8c0.5,1.2,0,2.6-1.2,3.1
	c-1.2,0.5-2.6,0-3.1-1.2c0,0,0-0.1,0-0.1C38.6,8.3,27.6,3.6,18,7.5C11.6,10,7.2,15.8,6.3,22.6h12c1.3-3.7,5.3-5.6,9-4.3
	c2,0.7,3.6,2.3,4.3,4.3h14.5c1.3,0,2.4,1.1,2.4,2.4C48.5,38,38,48.5,25,48.5c-9.6,0-18.3-5.9-21.8-14.8c-0.5-1.2,0.2-2.6,1.4-3
	c1.2-0.4,2.5,0.1,3,1.3c3.9,9.7,14.8,14.4,24.5,10.5c6.4-2.5,10.8-8.3,11.7-15.1h-12c-1.3,3.7-5.3,5.6-9,4.3
	C20.6,30.9,19,29.3,18.3,27.3L18.3,27.3z M25,27.3c1.3,0,2.4-1.1,2.4-2.4s-1.1-2.4-2.4-2.4c-1.3,0-2.4,1.1-2.4,2.4
	S23.7,27.3,25,27.3z"/>
</svg>
